#!OML:ASF G:\JayActor3\Patient Classification 1\Patient 1\Session 5\male.ASF
:FULLY-SPECIFIED
:DEGREES
635
root 16.1375 16.1343 -4.13558 192.32 -82.5521 -169.218
lowerback 30.9925 -0.0571172 0.78541
upperback 6.72825 -0.657137 -1.19825
thorax -9.41567 -0.611848 -1.52043
lowerneck 3.83135 1.09393 1.40841
upperneck -16.5117 1.41002 0.314831
head -5.59805 0.449542 -0.205933
rclavicle 3.26007e-014 1.51076e-014
rhumerus -28.9959 3.74833 -89.5083
rradius 38.2672
rwrist -3.95041
rhand -20.4338 -6.46175
rfingers 7.12502
rthumb 5.92105 -36.359
lclavicle 3.26007e-014 1.51076e-014
lhumerus -28.9238 -7.79618 86.1859
lradius 35.3236
lwrist 24.5702
lhand -20.8106 10.3069
lfingers 7.12502
lthumb 5.55725 40.214
rfemur -61.9499 0.83492 19.3363
rtibia 84.6518
rfoot -13.8845 -5.86917
rtoes -22.482
lfemur -53.0793 5.95045 -28.2714
ltibia 46.5345
lfoot -13.136 0.830909
ltoes 0.296055
636
root 16.2382 16.1479 -4.13526 192.118 -82.7117 -168.876
lowerback 30.9541 -0.0907843 0.83264
upperback 6.71028 -0.679147 -1.18521
thorax -9.41869 -0.621274 -1.52504
lowerneck 3.83747 1.07476 1.40502
upperneck -16.5364 1.38674 0.338745
head -5.60716 0.436081 -0.196573
rclavicle -7.95139e-016 -2.38542e-015
rhumerus -28.9983 3.76581 -89.4989
rradius 38.331
rwrist -3.97767
rhand -20.4531 -6.46491
rfingers 7.12502
rthumb 5.90235 -36.3627
lclavicle -7.95139e-016 -2.38542e-015
lhumerus -28.907 -7.79099 86.1761
lradius 35.3339
lwrist 24.5678
lhand -20.816 10.2906
lfingers 7.12502
lthumb 5.55198 40.1979
rfemur -61.154 0.68809 19.3279
rtibia 84.9688
rfoot -13.3245 -5.45021
rtoes -22.0503
lfemur -53.3565 6.05515 -28.3397
ltibia 45.9594
lfoot -12.5685 0.434871
ltoes 0.767724
637
root 16.3386 16.1603 -4.13558 191.767 -82.8652 -168.406
lowerback 30.9279 -0.119111 0.887426
upperback 6.69875 -0.692667 -1.16832
thorax -9.41987 -0.62729 -1.53281
lowerneck 3.84643 1.05663 1.40271
upperneck -16.5659 1.36579 0.367646
head -5.61829 0.423235 -0.185981
rclavicle 7.15625e-015 -2.50469e-014
rhumerus -28.9946 3.7784 -89.4844
rradius 38.3698
rwrist -3.94642
rhand -20.518 -6.44524
rfingers 7.12502
rthumb 5.83974 -36.3448
lclavicle 7.15625e-015 -2.50469e-014
lhumerus -28.8887 -7.78703 86.1742
lradius 35.3377
lwrist 24.5408
lhand -20.816 10.2805
lfingers 7.12502
lthumb 5.552 40.1877
rfemur -60.3211 0.56267 19.346
rtibia 85.1772
rfoot -12.7049 -4.96856
rtoes -21.543
lfemur -53.6121 6.1599 -28.385
ltibia 45.3963
lfoot -12.0126 0.0488229
ltoes 1.25245
638
root 16.4388 16.1717 -4.13651 191.38 -83.0073 -167.924
lowerback 30.9152 -0.140701 0.931247
upperback 6.69332 -0.702008 -1.15052
thorax -9.42032 -0.63151 -1.53469
lowerneck 3.85784 1.04239 1.3994
upperneck -16.5998 1.3505 0.398958
head -5.6312 0.412953 -0.174816
rclavicle -2.38542e-014 -3.97569e-014
rhumerus -28.9834 3.78916 -89.4641
rradius 38.4004
rwrist -3.91265
rhand -20.5642 -6.44472
rfingers 7.12502
rthumb 5.79512 -36.3455
lclavicle -2.38542e-014 -3.97569e-014
lhumerus -28.8737 -7.77985 86.1802
lradius 35.3375
lwrist 24.4994
lhand -20.8263 10.2598
lfingers 7.12502
lthumb 5.54201 40.1673
rfemur -59.4544 0.464237 19.3724
rtibia 85.2746
rfoot -11.9968 -4.4429
rtoes -20.9938
lfemur -53.8415 6.26324 -28.4211
ltibia 44.8433
lfoot -11.4739 -0.325986
ltoes 1.75933
639
root 16.5391 16.1816 -4.13823 191.015 -83.1377 -167.485
lowerback 30.9148 -0.154779 0.957456
upperback 6.69266 -0.70833 -1.13406
thorax -9.42103 -0.634283 -1.52894
lowerneck 3.87194 1.03173 1.39583
upperneck -16.6364 1.34091 0.434958
head -5.64544 0.405088 -0.162487
rclavicle -2.06736e-014 -9.93923e-015
rhumerus -28.9642 3.81427 -89.444
rradius 38.4177
rwrist -3.8883
rhand -20.6046 -6.45395
rfingers 7.12502
rthumb 5.75615 -36.3558
lclavicle -2.06736e-014 -9.93923e-015
lhumerus -28.861 -7.7717 86.1932
lradius 35.3327
lwrist 24.4484
lhand -20.8455 10.2372
lfingers 7.12502
lthumb 5.52349 40.1452
rfemur -58.5617 0.392994 19.4026
rtibia 85.2615
rfoot -11.2138 -3.86766
rtoes -20.4248
lfemur -54.0482 6.36499 -28.4549
ltibia 44.3031
lfoot -10.9506 -0.688873
ltoes 2.28445
640
root 16.6395 16.1894 -4.14077 190.686 -83.2518 -167.1
lowerback 30.9231 -0.159639 0.965635
upperback 6.69568 -0.709713 -1.12102
thorax -9.42148 -0.634679 -1.51841
lowerneck 3.88689 1.02292 1.39407
upperneck -16.6698 1.33474 0.47453
head -5.65885 0.398616 -0.149536
rclavicle -2.82274e-014 -2.78299e-014
rhumerus -28.9403 3.84165 -89.4259
rradius 38.4274
rwrist -3.87275
rhand -20.6318 -6.47507
rfingers 7.12502
rthumb 5.72982 -36.3776
lclavicle -2.82274e-014 -2.78299e-014
lhumerus -28.8556 -7.76708 86.2096
lradius 35.3265
lwrist 24.4112
lhand -20.867 10.1978
lfingers 7.12502
lthumb 5.50275 40.1063
rfemur -57.6496 0.357874 19.4371
rtibia 85.1416
rfoot -10.3975 -3.25056
rtoes -19.8575
lfemur -54.2392 6.46597 -28.4872
ltibia 43.7793
lfoot -10.4403 -1.02609
ltoes 2.76392
641
root 16.74 16.1956 -4.1439 190.471 -83.3558 -166.846
lowerback 30.9402 -0.158323 0.955336
upperback 6.69991 -0.710106 -1.11381
thorax -9.42474 -0.634439 -1.50409
lowerneck 3.89917 1.01443 1.39304
upperneck -16.6931 1.33 0.518932
head -5.66863 0.392695 -0.135244
rclavicle 3.18055e-015 3.18055e-015
rhumerus -28.915 3.86691 -89.4087
rradius 38.4298
rwrist -3.84796
rhand -20.6461 -6.49451
rfingers 7.12502
rthumb 5.716 -36.3974
lclavicle 3.18055e-015 3.18055e-015
lhumerus -28.8585 -7.7687 86.2308
lradius 35.3204
lwrist 24.3932
lhand -20.8842 10.1574
lfingers 7.12502
lthumb 5.48617 40.0664
rfemur -56.7253 0.347305 19.4688
rtibia 84.916
rfoot -9.57227 -2.58908
rtoes -19.2271
lfemur -54.4173 6.56451 -28.5323
ltibia 43.2736
lfoot -9.94162 -1.33878
ltoes 3.1755
642
root 16.8407 16.2 -4.14776 190.337 -83.449 -166.684
lowerback 30.9584 -0.150535 0.932445
upperback 6.70582 -0.707189 -1.11199
thorax -9.42647 -0.632547 -1.48981
lowerneck 3.90685 1.00393 1.39446
upperneck -16.7053 1.32313 0.565573
head -5.67418 0.385673 -0.12049
rclavicle 5.68524e-014 4.69132e-014
rhumerus -28.8854 3.88583 -89.3944
rradius 38.4352
rwrist -3.84726
rhand -20.6335 -6.54214
rfingers 7.12502
rthumb 5.72817 -36.4447
lclavicle 5.68524e-014 4.69132e-014
lhumerus -28.866 -7.78012 86.2545
lradius 35.3172
lwrist 24.3964
lhand -20.8969 10.1271
lfingers 7.12502
lthumb 5.47388 40.0364
rfemur -55.7957 0.365691 19.5085
rtibia 84.5889
rfoot -8.8001 -1.90107
rtoes -18.5654
lfemur -54.5919 6.66541 -28.5881
ltibia 42.7875
lfoot -9.44945 -1.628
ltoes 3.51687
643
root 16.9419 16.2029 -4.15225 190.279 -83.538 -166.607
lowerback 30.9784 -0.139576 0.903973
upperback 6.71137 -0.70262 -1.11486
thorax -9.42942 -0.629843 -1.47823
lowerneck 3.90594 0.990217 1.39752
upperneck -16.7028 1.31213 0.61316
head -5.67369 0.376779 -0.105399
rclavicle -1.86858e-014 -3.97569e-014
rhumerus -28.8557 3.8903 -89.3818
rradius 38.4351
rwrist -3.8243
rhand -20.6333 -6.58025
rfingers 7.12502
rthumb 5.72842 -36.4828
lclavicle -1.86858e-014 -3.97569e-014
lhumerus -28.8792 -7.80347 86.2822
lradius 35.3176
lwrist 24.4152
lhand -20.887 10.1314
lfingers 7.12502
lthumb 5.48341 40.0405
rfemur -54.8686 0.399598 19.5622
rtibia 84.1629
rfoot -8.10569 -1.2094
rtoes -17.8577
lfemur -54.7684 6.76761 -28.6568
ltibia 42.3182
lfoot -8.95706 -1.89707
ltoes 3.79267
644
root 17.0435 16.2047 -4.1573 190.276 -83.6257 -166.589
lowerback 30.9931 -0.127929 0.875277
upperback 6.71761 -0.697684 -1.12132
thorax -9.42911 -0.626972 -1.47075
lowerneck 3.8939 0.973524 1.40446
upperneck -16.6887 1.29653 0.656772
head -5.66758 0.365911 -0.0918603
rclavicle -6.75868e-015 7.95139e-015
rhumerus -28.8263 3.87697 -89.3701
rradius 38.4466
rwrist -3.82535
rhand -20.605 -6.64173
rfingers 7.12502
rthumb 5.75573 -36.5436
lclavicle -6.75868e-015 7.95139e-015
lhumerus -28.8945 -7.83568 86.3127
lradius 35.3231
lwrist 24.4412
lhand -20.8641 10.1616
lfingers 7.12502
lthumb 5.50555 40.0701
rfemur -53.9495 0.441855 19.6364
rtibia 83.6392
rfoot -7.4968 -0.555645
rtoes -17.1166
lfemur -54.951 6.86915 -28.7368
ltibia 41.8621
lfoot -8.46116 -2.14978
ltoes 4.02607
